#Comment line ignore any data following # character 
#Hierarchical Translation and Rotation (.htr) file 
[Header]	
#Header keywords are followed by a single value 
FileType HTR		#Single word string
DataType HTRS		#Translation followed by rotation and scale data
FileVersion 1		#integer
NumSegments 84		#integer
NumFrames 2		#integer
DataFrameRate 30		#integer, data frame rate in this file
EulerRotationOrder ZYX
CalibrationUnits mm
RotationUnits Degrees
GlobalAxisofGravity Y
BoneLengthAxis Y
ScaleFactor 1.00
[SegmentNames&Hierarchy]
#CHILD	PARENT
MASTER GLOBAL
root MASTER
chest root
L_mid_tent01 root
R_mid_tent01 root
spine01 root
Bip01_Neck chest
L_humerus chest
R_humerus chest
weapon_bone chest
Bip01_Head Bip01_Neck
eye_left_bone Bip01_Head
eye_right_bone Bip01_Head
L_forearm L_humerus
L_front_hand L_forearm
L_weapon_bone L_forearm
L_front_hand01_01 L_front_hand
L_front_hand02_01 L_front_hand
L_front_hand03_01 L_front_hand
L_front_hand01_02 L_front_hand01_01
L_front_hand02_02 L_front_hand02_01
L_front_hand03_02 L_front_hand03_01
R_forearm R_humerus
R_front_hand R_forearm
R_weapon_bone R_forearm
R_front_hand01_01 R_front_hand
R_front_hand02_01 R_front_hand
R_front_hand03_01 R_front_hand
R_front_hand01_02 R_front_hand01_01
R_front_hand02_02 R_front_hand02_01
R_front_hand03_02 R_front_hand03_01
null_rope01_connect L_mid_tent01
Rope1_Seg01 null_rope01_connect
Rope1_Seg02 Rope1_Seg01
Rope1_Seg03 Rope1_Seg02
Rope1_Seg04 Rope1_Seg03
Rope1_Seg05 Rope1_Seg04
Rope1_Seg06 Rope1_Seg05
Rope1_Seg07 Rope1_Seg06
Rope1_Seg09 Rope1_Seg07
L_mid_hand01 Rope1_Seg09
L_mid_hand02 Rope1_Seg09
L_mid_hand03 Rope1_Seg09
null_rope02_connect R_mid_tent01
Rope2_Seg01 null_rope02_connect
Rope2_Seg02 Rope2_Seg01
Rope2_Seg03 Rope2_Seg02
Rope2_Seg04 Rope2_Seg03
Rope2_Seg05 Rope2_Seg04
Rope2_Seg06 Rope2_Seg05
Rope2_Seg07 Rope2_Seg06
Rope2_Seg09 Rope2_Seg07
R_mid_hand01 Rope2_Seg09
R_mid_hand02 Rope2_Seg09
R_mid_hand03 Rope2_Seg09
spine02 spine01
spine03 spine02
pelvis spine03
null_rope03_connect pelvis
null_rope04_connect pelvis
Rope3_Seg01 null_rope03_connect
Rope3_Seg02 Rope3_Seg01
Rope3_Seg03 Rope3_Seg02
Rope3_Seg04 Rope3_Seg03
Rope3_Seg05 Rope3_Seg04
Rope3_Seg06 Rope3_Seg05
Rope3_Seg07 Rope3_Seg06
Rope3_Seg08 Rope3_Seg07
Rope3_Seg09 Rope3_Seg08
R_rear_hand01 Rope3_Seg09
R_rear_hand02 Rope3_Seg09
R_rear_hand03 Rope3_Seg09
Rope4_Seg01 null_rope04_connect
Rope4_Seg02 Rope4_Seg01
Rope4_Seg03 Rope4_Seg02
Rope4_Seg04 Rope4_Seg03
Rope4_Seg05 Rope4_Seg04
Rope4_Seg06 Rope4_Seg05
Rope4_Seg07 Rope4_Seg06
Rope4_Seg08 Rope4_Seg07
Rope4_Seg09 Rope4_Seg08
L_rear_hand01 Rope4_Seg09
L_rear_hand02 Rope4_Seg09
L_rear_hand03 Rope4_Seg09
[BasePosition]
#SegmentName Tx, Ty, Tz, Rx, Ry, Rz, BoneLength
MASTER 0.000000 0.000000 0.000000 -90.000000 0.000000 0.000000 10.000000 
root 0.000000 0.000000 0.000000 0.000000 0.000000 0.000000 10.000000 
chest 0.000000 0.000000 0.000000 0.000000 0.000000 0.000000 10.000000 
L_mid_tent01 0.000000 0.000000 0.000000 0.000000 0.000000 0.000000 10.000000 
R_mid_tent01 0.000000 0.000000 0.000000 0.000000 0.000000 0.000000 10.000000 
spine01 0.000000 0.000000 0.000000 0.000000 0.000000 0.000000 10.000000 
Bip01_Neck 0.000000 0.000000 0.000000 0.000000 0.000000 0.000000 10.000000 
L_humerus 0.000000 0.000000 0.000000 0.000000 0.000000 0.000000 10.000000 
R_humerus 0.000000 0.000000 0.000000 0.000000 0.000000 0.000000 10.000000 
weapon_bone 0.000000 0.000000 0.000000 0.000000 0.000000 0.000000 10.000000 
Bip01_Head 0.000000 0.000000 0.000000 0.000000 0.000000 0.000000 10.000000 
eye_left_bone 0.000000 0.000000 0.000000 0.000000 0.000000 0.000000 10.000000 
eye_right_bone 0.000000 0.000000 0.000000 0.000000 0.000000 0.000000 10.000000 
L_forearm 0.000000 0.000000 0.000000 0.000000 0.000000 0.000000 10.000000 
L_front_hand 0.000000 0.000000 0.000000 0.000000 0.000000 0.000000 10.000000 
L_weapon_bone 0.000000 0.000000 0.000000 0.000000 0.000000 0.000000 10.000000 
L_front_hand01_01 0.000000 0.000000 0.000000 0.000000 0.000000 0.000000 10.000000 
L_front_hand02_01 0.000000 0.000000 0.000000 0.000000 0.000000 0.000000 10.000000 
L_front_hand03_01 0.000000 0.000000 0.000000 0.000000 0.000000 0.000000 10.000000 
L_front_hand01_02 0.000000 0.000000 0.000000 0.000000 0.000000 0.000000 10.000000 
L_front_hand02_02 0.000000 0.000000 0.000000 0.000000 0.000000 0.000000 10.000000 
L_front_hand03_02 0.000000 0.000000 0.000000 0.000000 0.000000 0.000000 10.000000 
R_forearm 0.000000 0.000000 0.000000 0.000000 0.000000 0.000000 10.000000 
R_front_hand 0.000000 0.000000 0.000000 0.000000 0.000000 0.000000 10.000000 
R_weapon_bone 0.000000 0.000000 0.000000 0.000000 0.000000 0.000000 10.000000 
R_front_hand01_01 0.000000 0.000000 0.000000 0.000000 0.000000 0.000000 10.000000 
R_front_hand02_01 0.000000 0.000000 0.000000 0.000000 0.000000 0.000000 10.000000 
R_front_hand03_01 0.000000 0.000000 0.000000 0.000000 0.000000 0.000000 10.000000 
R_front_hand01_02 0.000000 0.000000 0.000000 0.000000 0.000000 0.000000 10.000000 
R_front_hand02_02 0.000000 0.000000 0.000000 0.000000 0.000000 0.000000 10.000000 
R_front_hand03_02 0.000000 0.000000 0.000000 0.000000 0.000000 0.000000 10.000000 
null_rope01_connect 0.000000 0.000000 0.000000 0.000000 0.000000 0.000000 10.000000 
Rope1_Seg01 0.000000 0.000000 0.000000 0.000000 0.000000 0.000000 10.000000 
Rope1_Seg02 0.000000 0.000000 0.000000 0.000000 0.000000 0.000000 10.000000 
Rope1_Seg03 0.000000 0.000000 0.000000 0.000000 0.000000 0.000000 10.000000 
Rope1_Seg04 0.000000 0.000000 0.000000 0.000000 0.000000 0.000000 10.000000 
Rope1_Seg05 0.000000 0.000000 0.000000 0.000000 0.000000 0.000000 10.000000 
Rope1_Seg06 0.000000 0.000000 0.000000 0.000000 0.000000 0.000000 10.000000 
Rope1_Seg07 0.000000 0.000000 0.000000 0.000000 0.000000 0.000000 10.000000 
Rope1_Seg09 0.000000 0.000000 0.000000 0.000000 0.000000 0.000000 10.000000 
L_mid_hand01 0.000000 0.000000 0.000000 0.000000 0.000000 0.000000 10.000000 
L_mid_hand02 0.000000 0.000000 0.000000 0.000000 0.000000 0.000000 10.000000 
L_mid_hand03 0.000000 0.000000 0.000000 0.000000 0.000000 0.000000 10.000000 
null_rope02_connect 0.000000 0.000000 0.000000 0.000000 0.000000 0.000000 10.000000 
Rope2_Seg01 0.000000 0.000000 0.000000 0.000000 0.000000 0.000000 10.000000 
Rope2_Seg02 0.000000 0.000000 0.000000 0.000000 0.000000 0.000000 10.000000 
Rope2_Seg03 0.000000 0.000000 0.000000 0.000000 0.000000 0.000000 10.000000 
Rope2_Seg04 0.000000 0.000000 0.000000 0.000000 0.000000 0.000000 10.000000 
Rope2_Seg05 0.000000 0.000000 0.000000 0.000000 0.000000 0.000000 10.000000 
Rope2_Seg06 0.000000 0.000000 0.000000 0.000000 0.000000 0.000000 10.000000 
Rope2_Seg07 0.000000 0.000000 0.000000 0.000000 0.000000 0.000000 10.000000 
Rope2_Seg09 0.000000 0.000000 0.000000 0.000000 0.000000 0.000000 10.000000 
R_mid_hand01 0.000000 0.000000 0.000000 0.000000 0.000000 0.000000 10.000000 
R_mid_hand02 0.000000 0.000000 0.000000 0.000000 0.000000 0.000000 10.000000 
R_mid_hand03 0.000000 0.000000 0.000000 0.000000 0.000000 0.000000 10.000000 
spine02 0.000000 0.000000 0.000000 0.000000 0.000000 0.000000 10.000000 
spine03 0.000000 0.000000 0.000000 0.000000 0.000000 0.000000 10.000000 
pelvis 0.000000 0.000000 0.000000 0.000000 0.000000 0.000000 10.000000 
null_rope03_connect 0.000000 0.000000 0.000000 0.000000 0.000000 0.000000 10.000000 
null_rope04_connect 0.000000 0.000000 0.000000 0.000000 0.000000 0.000000 10.000000 
Rope3_Seg01 0.000000 0.000000 0.000000 0.000000 0.000000 0.000000 10.000000 
Rope3_Seg02 0.000000 0.000000 0.000000 0.000000 0.000000 0.000000 10.000000 
Rope3_Seg03 0.000000 0.000000 0.000000 0.000000 0.000000 0.000000 10.000000 
Rope3_Seg04 0.000000 0.000000 0.000000 0.000000 0.000000 0.000000 10.000000 
Rope3_Seg05 0.000000 0.000000 0.000000 0.000000 0.000000 0.000000 10.000000 
Rope3_Seg06 0.000000 0.000000 0.000000 0.000000 0.000000 0.000000 10.000000 
Rope3_Seg07 0.000000 0.000000 0.000000 0.000000 0.000000 0.000000 10.000000 
Rope3_Seg08 0.000000 0.000000 0.000000 0.000000 0.000000 0.000000 10.000000 
Rope3_Seg09 0.000000 0.000000 0.000000 0.000000 0.000000 0.000000 10.000000 
R_rear_hand01 0.000000 0.000000 0.000000 0.000000 0.000000 0.000000 10.000000 
R_rear_hand02 0.000000 0.000000 0.000000 0.000000 0.000000 0.000000 10.000000 
R_rear_hand03 0.000000 0.000000 0.000000 0.000000 0.000000 0.000000 10.000000 
Rope4_Seg01 0.000000 0.000000 0.000000 0.000000 0.000000 0.000000 10.000000 
Rope4_Seg02 0.000000 0.000000 0.000000 0.000000 0.000000 0.000000 10.000000 
Rope4_Seg03 0.000000 0.000000 0.000000 0.000000 0.000000 0.000000 10.000000 
Rope4_Seg04 0.000000 0.000000 0.000000 0.000000 0.000000 0.000000 10.000000 
Rope4_Seg05 0.000000 0.000000 0.000000 0.000000 0.000000 0.000000 10.000000 
Rope4_Seg06 0.000000 0.000000 0.000000 0.000000 0.000000 0.000000 10.000000 
Rope4_Seg07 0.000000 0.000000 0.000000 0.000000 0.000000 0.000000 10.000000 
Rope4_Seg08 0.000000 0.000000 0.000000 0.000000 0.000000 0.000000 10.000000 
Rope4_Seg09 0.000000 0.000000 0.000000 0.000000 0.000000 0.000000 10.000000 
L_rear_hand01 0.000000 0.000000 0.000000 0.000000 0.000000 0.000000 10.000000 
L_rear_hand02 0.000000 0.000000 0.000000 0.000000 0.000000 0.000000 10.000000 
L_rear_hand03 0.000000 0.000000 0.000000 0.000000 0.000000 0.000000 10.000000 
#Beginning of Data. Separated by tabs
#Fr	Tx	Ty	Tz	Rx	Ry	Rz	SF
[MASTER]
21 0.000003 -0.000048 -3483.561035 0.001660 0.001660 0.001660 3483.561035
22 0.000003 -0.000044 -3729.956299 0.001660 0.001660 0.001660 3729.956543
[root]
21 -16.502302 -7.377456 1457.229492 -75.971855 -17.243441 -96.678009 1457.341553
22 -16.502302 -5.576683 1456.169800 -68.926598 -12.464503 -99.233612 1456.274048
[chest]
21 -84.512650 -34.090519 0.000000 2.265212 -2.461777 149.207657 91.129311
22 -84.512650 -34.090519 0.000000 1.532795 -1.054319 148.471054 91.129311
[L_mid_tent01]
21 27.299250 22.178658 -249.918594 2.095417 -2.463886 78.687622 252.381546
22 27.299246 22.178675 -249.918610 1.910069 5.793853 78.854721 252.381561
[R_mid_tent01]
21 23.228794 24.509907 226.238495 165.777695 -0.481438 72.672554 228.744751
22 23.228794 24.509907 226.238495 165.244659 -7.740590 75.472168 228.744751
[spine01]
21 -0.361383 -0.195265 0.000000 0.002062 0.001122 32.879829 0.410763
22 -0.361383 -0.195265 0.000000 0.002062 0.001122 32.879829 0.410763
[Bip01_Neck]
21 165.484543 71.581718 0.000119 176.643677 -1.657967 43.431911 180.302734
22 165.484543 71.581718 0.000119 176.643677 -1.657967 43.431911 180.302734
[L_humerus]
21 -13.983130 -135.272980 -120.471481 150.629898 47.996372 -74.896965 181.680161
22 -13.983130 -135.272980 -120.471481 155.199829 39.000259 -70.061691 181.680161
[R_humerus]
21 -13.983309 -135.273102 125.287651 -174.838058 -7.440175 -91.848152 184.909012
22 -13.983309 -135.273102 125.287651 -175.495651 -7.558631 -90.046837 184.909012
[weapon_bone]
21 235.964890 -300.705902 0.000000 0.000000 -89.951546 -128.212341 382.234833
22 235.964890 -300.705902 0.000000 0.000000 -89.951546 -128.212341 382.234833
[Bip01_Head]
21 213.583954 185.326996 16.794979 31.701378 0.835325 -43.897385 283.277740
22 213.630096 185.198517 18.453907 31.605919 1.323514 -43.900490 283.331696
[eye_left_bone]
21 -24.626970 125.451866 -64.772606 0.000000 -90.000000 -99.840431 143.318359
22 -24.626970 125.451866 -64.772606 0.000000 -90.000000 -99.840431 143.318359
[eye_right_bone]
21 -24.626970 125.451866 64.327362 0.000000 -89.965736 80.156380 143.117676
22 -24.626970 125.451866 64.327362 0.000000 -89.965736 80.156380 143.117676
[L_forearm]
21 322.776093 0.000000 -0.000119 0.000119 -0.002344 -95.820801 322.776093
22 322.776093 0.000000 -0.000119 0.000116 -0.002344 -95.647400 322.776093
[L_front_hand]
21 241.149185 -0.042021 -3.300071 -178.632919 -1.807558 -28.569584 241.171753
22 241.149185 -0.042021 -3.300071 -178.640442 -1.816541 -28.319542 241.171753
[L_weapon_bone]
21 156.183838 0.000000 0.000000 0.000014 0.000007 0.000001 156.183838
22 156.183838 0.000000 0.000000 0.000014 0.000007 0.000001 156.183838
[L_front_hand01_01]
21 86.095154 20.947098 -0.655860 -0.366594 -0.477154 75.385574 88.609184
22 86.095154 20.947098 -0.655860 -0.366594 -0.477154 75.385574 88.609184
[L_front_hand02_01]
21 86.935165 -11.437475 24.513514 154.399811 -59.883842 -61.369587 91.046425
22 86.935165 -11.437475 24.513514 154.399796 -59.883835 -61.369587 91.046425
[L_front_hand03_01]
21 86.637497 -14.123976 -20.424902 -153.913879 58.118130 -62.702892 90.126129
22 86.637497 -14.123976 -20.424902 -153.913879 58.118130 -62.702892 90.126129
[L_front_hand01_02]
21 71.020905 -0.000179 0.000030 0.000334 -0.002323 -106.379684 71.020905
22 71.020905 -0.000179 0.000030 0.000334 -0.002323 -106.379684 71.020905
[L_front_hand02_02]
21 71.020927 -0.000119 0.000060 0.000334 -0.002323 -106.379684 71.020927
22 71.020927 -0.000119 0.000060 0.000334 -0.002323 -106.379684 71.020927
[L_front_hand03_02]
21 71.020905 -0.000060 0.000060 0.000334 -0.002323 -106.379684 71.020905
22 71.020905 -0.000060 0.000060 0.000334 -0.002323 -106.379684 71.020905
[R_forearm]
21 322.776428 -0.000060 0.000030 0.209516 0.012377 -94.224358 322.776428
22 322.776428 -0.000060 0.000030 0.209531 0.012117 -94.082520 322.776428
[R_front_hand]
21 238.847015 -0.006795 2.210259 -2.384837 -10.701141 -27.668861 238.857239
22 238.847015 -0.006795 2.210259 -2.439065 -10.691260 -27.372328 238.857239
[R_weapon_bone]
21 155.664093 0.002503 -0.000030 0.003487 0.001180 -90.988930 155.664078
22 155.664093 0.002503 -0.000030 0.003487 0.001180 -90.988930 155.664078
[R_front_hand01_01]
21 87.624611 14.231146 22.918642 -154.633484 -59.950619 61.746037 91.683487
22 87.624611 14.231146 22.918642 -154.633484 -59.950607 61.746037 91.683487
[R_front_hand02_01]
21 89.356956 14.367283 -19.491137 154.602661 58.302849 63.744389 92.579636
22 89.356956 14.367283 -19.491137 154.602661 58.302849 63.744389 92.579636
[R_front_hand03_01]
21 87.286232 -22.307278 -0.143439 0.162155 -0.423168 -75.767906 90.091743
22 87.286232 -22.307278 -0.143439 0.162155 -0.423168 -75.767906 90.091743
[R_front_hand01_02]
21 71.020905 0.000060 0.000119 0.002323 -0.000334 106.381714 71.020905
22 71.020905 0.000060 0.000119 0.002323 -0.000334 106.381714 71.020905
[R_front_hand02_02]
21 71.020844 -0.000030 -0.000119 0.002323 -0.000334 106.381714 71.020836
22 71.020844 -0.000030 -0.000119 0.002323 -0.000334 106.381714 71.020836
[R_front_hand03_02]
21 71.020905 0.000000 0.000030 0.002323 -0.000334 106.381714 71.020905
22 71.020905 0.000000 0.000030 0.002323 -0.000334 106.381714 71.020905
[null_rope01_connect]
21 328.732483 0.000000 -0.000238 -10.328058 -73.166245 39.619354 328.732483
22 328.732483 0.000000 -0.000238 -27.996733 -71.782066 52.452682 328.732483
[Rope1_Seg01]
21 0.000039 -0.000047 0.000157 -9.464583 37.955711 171.673065 0.000168
22 0.000041 -0.000047 0.000164 -16.747875 48.844856 161.927246 0.000176
[Rope1_Seg02]
21 139.999863 -0.000179 0.000000 -0.440866 7.588318 -3.904372 139.999863
22 139.999863 -0.000179 0.000000 -1.543318 9.646754 -5.292583 139.999863
[Rope1_Seg03]
21 139.999924 0.000060 -0.000060 -1.899161 12.092511 -6.230821 139.999924
22 139.999924 0.000060 -0.000060 -4.204139 13.984586 -7.409056 139.999924
[Rope1_Seg04]
21 139.999924 -0.000060 -0.000119 -7.399705 19.762293 -8.139326 139.999924
22 139.999924 -0.000060 -0.000119 -10.204400 16.874046 -6.446249 139.999924
[Rope1_Seg05]
21 139.999832 0.000119 -0.000060 -15.152771 20.102030 -6.864145 139.999832
22 139.999832 0.000119 -0.000060 -16.886757 15.378270 -4.458665 139.999832
[Rope1_Seg06]
21 139.999954 0.000119 -0.000060 -25.968359 18.159132 -8.318475 139.999954
22 139.999954 0.000119 -0.000060 -52.573006 21.422382 -3.306872 139.999954
[Rope1_Seg07]
21 139.999985 0.000060 0.000000 -70.110573 18.899036 -1.148054 139.999985
22 139.999985 0.000060 0.000000 -47.011204 15.044945 14.449676 139.999985
[Rope1_Seg09]
21 121.602913 0.000119 -0.000089 -89.793175 -1.359789 0.847147 121.602913
22 121.602913 0.000119 -0.000089 -89.793175 -1.359789 0.847147 121.602913
[L_mid_hand01]
21 103.859421 1.038730 8.195221 130.544373 -67.584534 -38.866943 104.187431
22 103.859421 1.038730 8.195221 130.544373 -67.584534 -38.866943 104.187431
[L_mid_hand02]
21 105.572853 -4.139662 -10.864139 -168.923172 43.409309 -73.498886 106.211075
22 105.572853 -4.139662 -10.864139 -168.923172 43.409309 -73.498886 106.211075
[L_mid_hand03]
21 104.641464 17.579376 -3.913581 -6.012627 17.808174 74.893669 106.179977
22 104.641464 17.579376 -3.913581 -6.012627 17.808174 74.893669 106.179977
[null_rope02_connect]
21 328.732849 0.000179 -0.000119 -119.709000 79.112190 23.653868 328.732849
22 328.732849 0.000179 -0.000119 -147.147781 66.659470 0.175030 328.732849
[Rope2_Seg01]
21 0.000022 0.000106 0.000000 86.106018 9.190544 11.191147 0.000108
22 0.000026 0.000107 0.000000 88.369667 4.639085 10.666539 0.000110
[Rope2_Seg02]
21 139.999741 -0.000060 -0.000119 -3.835553 0.130487 -7.991066 139.999756
22 139.999741 -0.000060 -0.000119 -5.980031 -1.395294 -10.808231 139.999756
[Rope2_Seg03]
21 140.000107 0.000030 0.000000 -4.838857 1.107089 -12.928255 140.000107
22 140.000107 0.000030 0.000000 -6.578501 0.664106 -16.050095 140.000107
[Rope2_Seg04]
21 139.999802 0.000000 -0.000060 -5.040048 7.830291 -23.666887 139.999802
22 139.999802 0.000000 -0.000060 -4.699493 4.749960 -19.220108 139.999802
[Rope2_Seg05]
21 139.999985 -0.000060 0.000119 0.602168 -1.788944 -18.708664 139.999985
22 139.999985 -0.000060 0.000119 -1.605334 -9.584454 -12.951193 139.999985
[Rope2_Seg06]
21 139.999893 -0.000030 -0.000119 1.410103 -17.290876 -12.458106 139.999893
22 139.999893 -0.000030 -0.000119 -3.278853 -15.037068 -13.337667 139.999893
[Rope2_Seg07]
21 139.999893 0.000060 -0.000060 -1.347798 -9.833249 -12.417369 139.999893
22 139.999893 0.000060 -0.000060 -4.272765 -7.915847 -11.515630 139.999893
[Rope2_Seg09]
21 121.338966 0.000089 -0.000060 33.793236 -1.359788 -0.847141 121.338966
22 121.338966 0.000089 -0.000060 33.793236 -1.359788 -0.847141 121.338966
[R_mid_hand01]
21 104.680779 11.144459 -10.335981 -16.212063 45.237247 70.462852 105.778534
22 104.680779 11.144459 -10.335981 -16.212063 45.237247 70.462852 105.778534
[R_mid_hand02]
21 104.070427 2.443552 8.231699 49.067368 -67.749771 39.286453 104.424065
22 104.070427 2.443552 8.231699 49.067368 -67.749771 39.286453 104.424065
[R_mid_hand03]
21 106.028137 -11.221827 -5.996406 -177.101105 15.551026 -76.585571 106.788818
22 106.028137 -11.221827 -5.996406 -177.101105 15.551026 -76.585571 106.788818
[spine02]
21 129.756927 0.001550 0.000119 -1.152840 -3.952077 8.633329 129.756927
22 129.756927 0.001550 0.000119 -1.144214 -3.941439 8.481522 129.756927
[spine03]
21 78.614006 0.082939 -4.898959 0.952161 4.276816 3.046738 78.766541
22 78.614006 0.082879 -4.898962 0.960558 4.253513 3.155759 78.766541
[pelvis]
21 169.435242 0.051022 0.000000 0.028183 -0.144443 -13.078424 169.435257
22 169.435242 0.051022 0.000000 0.029034 -0.154320 -12.874346 169.435257
[null_rope03_connect]
21 -1.257226 -2.466202 137.391083 -10.676324 -76.858696 87.287766 137.418976
22 -1.257226 -2.466202 137.391083 -11.997032 -69.426712 84.578392 137.418976
[null_rope04_connect]
21 -1.259640 -2.480268 -137.844437 -10.676324 -76.858696 87.287766 137.872513
22 -1.259640 -2.480268 -137.844437 -11.997032 -69.426712 84.578392 137.872513
[Rope3_Seg01]
21 -0.000029 -0.000019 0.000157 10.342152 -28.739626 -59.945328 0.000160
22 -0.000029 -0.000018 0.000164 17.220043 -31.732906 -73.511307 0.000168
[Rope3_Seg02]
21 139.999924 -0.000119 0.000060 -1.213894 -6.620583 4.640919 139.999924
22 139.999924 -0.000119 0.000060 0.109828 -5.484649 8.714272 139.999924
[Rope3_Seg03]
21 139.999924 -0.000119 0.000119 -1.669617 -9.353683 5.365908 139.999924
22 139.999924 -0.000119 0.000119 -1.722518 -6.519720 15.094551 139.999924
[Rope3_Seg04]
21 139.999924 0.000119 0.000000 -5.169489 -19.917677 14.027203 139.999924
22 139.999924 0.000119 0.000000 -12.905437 -20.823740 28.066626 139.999924
[Rope3_Seg05]
21 139.999924 -0.000238 0.000060 -5.149376 -16.479530 15.656420 139.999924
22 139.999924 -0.000238 0.000060 -6.112719 -16.741863 8.386131 139.999924
[Rope3_Seg06]
21 139.999893 -0.000119 -0.000060 -0.820932 -5.118212 3.994781 139.999893
22 139.999893 -0.000119 -0.000060 -1.025306 -5.077187 2.611818 139.999893
[Rope3_Seg07]
21 139.999771 0.000060 -0.000119 -0.144832 -2.845163 2.112882 139.999771
22 139.999771 0.000060 -0.000119 -0.241898 -2.879209 1.422687 139.999771
[Rope3_Seg08]
21 139.999985 -0.000060 0.000000 0.183285 -1.587918 1.171380 139.999985
22 139.999985 -0.000060 0.000000 0.138784 -1.621584 0.796038 139.999985
[Rope3_Seg09]
21 90.185997 -0.000179 -0.000060 89.793228 -1.359877 -0.847183 90.185997
22 90.185997 -0.000179 -0.000060 89.793228 -1.359877 -0.847183 90.185997
[R_rear_hand01]
21 103.366196 -6.073594 -10.757982 -177.714203 24.565960 -73.910950 104.101845
22 103.366196 -6.073594 -10.757982 -177.714203 24.565960 -73.910950 104.101845
[R_rear_hand02]
21 100.509819 12.039542 -7.992327 -12.874829 36.868488 72.167213 101.543350
22 100.509819 12.039542 -7.992327 -12.874829 36.868488 72.167213 101.543350
[R_rear_hand03]
21 101.539970 5.215704 5.435467 71.484581 -71.816628 21.513813 101.819031
22 101.539970 5.215704 5.435467 71.484581 -71.816628 21.513813 101.819031
[Rope4_Seg01]
21 0.000000 0.000000 0.000000 -93.327484 -10.867863 -126.014557 0.000000
22 0.000000 0.000000 0.000000 -93.755363 -5.937894 -130.935608 0.000000
[Rope4_Seg02]
21 139.999985 0.000060 0.000119 0.200723 12.642153 7.368470 139.999985
22 139.999985 0.000060 0.000119 -1.743976 10.660667 9.368113 139.999985
[Rope4_Seg03]
21 139.999924 0.000000 -0.000238 1.223810 14.371777 6.400462 139.999924
22 139.999924 0.000000 -0.000238 -3.627364 10.851691 9.435753 139.999924
[Rope4_Seg04]
21 139.999985 0.000000 0.000119 4.947294 11.960157 2.566058 139.999985
22 139.999985 0.000000 0.000119 -3.439817 7.859515 6.057195 139.999985
[Rope4_Seg05]
21 139.999802 -0.000060 -0.000119 -54.410812 15.818579 19.483831 139.999802
22 139.999802 -0.000060 -0.000119 -46.714294 9.726069 19.276665 139.999802
[Rope4_Seg06]
21 139.999924 0.000000 0.000060 -68.809601 -10.709345 25.648123 139.999924
22 139.999924 0.000000 0.000060 -57.033844 -10.481385 23.454004 139.999924
[Rope4_Seg07]
21 139.999802 0.000000 0.000000 -6.910827 -11.276791 0.859043 139.999802
22 139.999802 0.000000 0.000000 -8.983846 -11.467617 2.506044 139.999802
[Rope4_Seg08]
21 139.999924 0.000000 0.000119 -3.627080 -5.638940 -0.230842 139.999924
22 139.999924 0.000000 0.000119 -4.327741 -5.920624 0.384160 139.999924
[Rope4_Seg09]
21 90.185791 0.000060 0.000060 -135.617828 2.228885 0.850567 90.185791
22 90.185791 0.000060 0.000060 -135.617828 2.228885 0.850567 90.185791
[L_rear_hand01]
21 101.696655 -8.392275 -7.654577 -12.874829 -36.868488 107.832764 102.329041
22 101.696655 -8.392275 -7.654577 -12.874829 -36.868488 107.832764 102.329041
[L_rear_hand02]
21 102.726799 -1.568258 5.773216 71.484581 71.816628 158.486160 102.900848
22 102.726799 -1.568258 5.773216 71.484581 71.816628 158.486160 102.900848
[L_rear_hand03]
21 104.552910 9.721220 -10.420293 -177.714203 -24.565960 -106.089035 105.519653
22 104.552910 9.721220 -10.420293 -177.714203 -24.565960 -106.089035 105.519653
